<?xml version="1.0" encoding="utf-8"?>
<svg xmlns="http://www.w3.org/2000/svg" height="256" width="256" viewBox="0 0 256 256">
  <g>
    <path id="path1" transform="rotate(0,128,128) translate(18.1250028610229,8) scale(7.5,7.5)  " fill="#FFFEFC" d="M18.700002,3.2999878L18.8,3.2999878C24.899999,5.1000061 29.3,10.700012 29.3,17.299988 29.3,25.399994 22.700002,32 14.600004,32 6.6000055,32 9.077803E-08,25.399994 0,17.299988 9.077803E-08,11 3.9999997,5.6000061 9.7000035,3.6000061L9.7000035,7.2000122C5.900001,9 3.3000027,12.899994 3.3000025,17.299988 3.3000027,23.5 8.4000005,28.600006 14.600004,28.600006 20.899999,28.600006 25.899999,23.5 25.899999,17.299988 25.899999,12.5 22.899999,8.3999939 18.700002,6.7999878z M12.600005,0L16.100005,0 16.100005,13.700012 12.600005,13.700012z" />
  </g>
</svg>